<?xml version="1.0" encoding="UTF-8"?>
<!DOCTYPE svg PUBLIC "-//W3C//DTD SVG 1.1//EN" "http://www.w3.org/Graphics/SVG/1.1/DTD/svg11.dtd">
<svg xmlns="http://www.w3.org/2000/svg" version="1.1" width="400px" height="400px" style="shape-rendering:geometricPrecision; text-rendering:geometricPrecision; image-rendering:optimizeQuality; fill-rule:evenodd; clip-rule:evenodd" xmlns:xlink="http://www.w3.org/1999/xlink">
<g><path style="opacity:1" fill="#b0b5c1" d="M 255.5,79.5 C 254.504,79.4142 253.671,79.7476 253,80.5C 252.828,87.0133 252.328,93.3466 251.5,99.5C 251.813,92.2454 251.48,85.0787 250.5,78C 252.452,76.6051 254.118,77.1051 255.5,79.5 Z"/></g>
<g><path style="opacity:1" fill="#b9c4ce" d="M 255.5,79.5 C 258.442,80.3045 261.109,81.6378 263.5,83.5C 260.173,83.1706 257.507,81.8373 255.5,79.5 Z"/></g>
<g><path style="opacity:1" fill="#94a5b8" d="M 255.5,79.5 C 257.507,81.8373 260.173,83.1706 263.5,83.5C 264.492,83.3284 265.158,83.6618 265.5,84.5C 268.477,87.2543 271.31,90.2543 274,93.5C 274.561,92.9781 275.228,92.6448 276,92.5C 277.987,94.6283 280.487,95.6283 283.5,95.5C 284.609,95.5569 285.609,95.8902 286.5,96.5C 286.821,98.0481 287.821,98.7148 289.5,98.5C 290.985,101.083 293.318,102.416 296.5,102.5C 297.167,102.833 297.833,103.167 298.5,103.5C 298.821,105.048 299.821,105.715 301.5,105.5C 302.237,107.305 303.237,108.971 304.5,110.5C 306.918,111.457 309.084,112.791 311,114.5C 311.671,113.748 312.504,113.414 313.5,113.5C 313.047,114.458 312.381,115.292 311.5,116C 318.045,119.44 324.712,122.606 331.5,125.5C 332.386,126.325 332.719,127.325 332.5,128.5C 330.62,128.229 329.287,128.896 328.5,130.5C 326.716,131.956 324.716,132.956 322.5,133.5C 322.5,134.5 322.5,135.5 322.5,136.5C 319.312,136.618 316.312,137.451 313.5,139C 314.252,139.671 314.586,140.504 314.5,141.5C 314.167,141.5 313.833,141.5 313.5,141.5C 310.513,141.998 307.513,142.498 304.5,143C 301.938,145.413 298.938,147.08 295.5,148C 293.286,150.375 291.286,152.875 289.5,155.5C 289.158,156.338 288.492,156.672 287.5,156.5C 285.236,157.219 282.903,157.552 280.5,157.5C 280.567,158.959 280.234,160.292 279.5,161.5C 279.158,162.338 278.492,162.672 277.5,162.5C 275.694,159.662 274.694,159.995 274.5,163.5C 273.178,163.67 272.011,163.337 271,162.5C 269.513,163.253 269.346,164.086 270.5,165C 267.099,164.734 265.433,166.234 265.5,169.5C 264.486,170.674 263.153,171.34 261.5,171.5C 259.473,171.338 257.473,171.505 255.5,172C 257.619,172.342 257.953,173.175 256.5,174.5C 255.178,174.33 254.011,174.663 253,175.5C 252.829,167.656 252.329,159.989 251.5,152.5C 250.817,150.824 249.483,150.157 247.5,150.5C 234.297,149.111 220.964,149.278 207.5,151C 202.54,152.498 197.54,153.998 192.5,155.5C 191.048,156.94 190.048,158.606 189.5,160.5C 188.486,161.674 187.153,162.34 185.5,162.5C 183.801,162.34 182.134,162.506 180.5,163C 179.33,164.755 177.663,165.755 175.5,166C 176.252,166.671 176.586,167.504 176.5,168.5C 174.932,167.527 173.265,167.36 171.5,168C 171.833,168.333 172.167,168.667 172.5,169C 171.027,169.71 170.36,170.876 170.5,172.5C 169.732,171.737 169.232,170.737 169,169.5C 167.63,172.625 165.463,174.959 162.5,176.5C 160.228,177.485 157.895,178.319 155.5,179C 153.845,180.444 153.178,182.278 153.5,184.5C 151.381,186.4 149.047,188.066 146.5,189.5C 141.806,190.189 138.14,192.523 135.5,196.5C 134.035,197.737 132.368,198.737 130.5,199.5C 129.957,199.56 129.624,199.893 129.5,200.5C 133.393,205.202 138.393,208.202 144.5,209.5C 144.833,209.5 145.167,209.5 145.5,209.5C 145.351,210.552 145.517,211.552 146,212.5C 149.659,215.652 153.493,218.652 157.5,221.5C 159.214,220.391 159.881,221.058 159.5,223.5C 162.221,223.963 164.888,224.629 167.5,225.5C 167.833,225.5 168.167,225.5 168.5,225.5C 169.171,226.847 169.171,228.014 168.5,229C 169.76,230.113 170.927,230.28 172,229.5C 172.778,231.584 173.945,233.417 175.5,235C 180.573,236.699 185.573,238.699 190.5,241C 191.126,241.75 191.626,242.584 192,243.5C 193.011,242.663 194.178,242.33 195.5,242.5C 195.833,242.5 196.167,242.5 196.5,242.5C 196.418,245.65 198.085,246.65 201.5,245.5C 203.583,246.959 205.75,248.292 208,249.5C 215.557,249.08 223.224,249.08 231,249.5C 237.538,249.496 243.705,248.83 249.5,247.5C 250.329,240.679 250.829,233.679 251,226.5C 251.308,225.692 251.808,225.025 252.5,224.5C 253.417,225.127 254.417,225.461 255.5,225.5C 255.33,226.822 255.663,227.989 256.5,229C 258.996,230.08 261.33,231.414 263.5,233C 266.907,234.935 270.574,235.768 274.5,235.5C 277.661,236.913 280.661,238.58 283.5,240.5C 285.21,243.509 287.543,245.842 290.5,247.5C 293.905,250.265 297.572,252.765 301.5,255C 303.891,255.287 306.224,255.787 308.5,256.5C 309.928,260.056 312.261,261.056 315.5,259.5C 317.03,262.777 319.363,264.11 322.5,263.5C 324.167,265.5 325.334,267.834 326,270.5C 326.915,269.672 327.581,268.672 328,267.5C 329.011,268.337 330.178,268.67 331.5,268.5C 332.492,268.328 333.158,268.662 333.5,269.5C 333.414,270.496 333.748,271.329 334.5,272C 332.907,272.949 331.574,274.115 330.5,275.5C 328.847,275.66 327.514,276.326 326.5,277.5C 325.341,279.25 323.674,280.25 321.5,280.5C 319.973,280.427 318.973,281.094 318.5,282.5C 317.035,283.737 315.368,284.737 313.5,285.5C 311.62,285.229 310.287,285.896 309.5,287.5C 307.5,287.5 305.5,287.5 303.5,287.5C 303.5,288.5 303.5,289.5 303.5,290.5C 300.927,290.148 298.594,290.648 296.5,292C 297.167,292.333 297.833,292.667 298.5,293C 297.244,293.417 296.577,294.25 296.5,295.5C 295.833,295.833 295.167,296.167 294.5,296.5C 292.167,296.5 289.833,296.5 287.5,296.5C 287.5,297.5 287.5,298.5 287.5,299.5C 285.139,299.674 282.806,300.007 280.5,300.5C 280.5,301.5 280.5,302.5 280.5,303.5C 277.266,304.576 273.932,305.243 270.5,305.5C 270.634,307.292 270.301,308.958 269.5,310.5C 266.506,313 263.173,315 259.5,316.5C 257.738,316.357 256.071,316.691 254.5,317.5C 253.646,316.478 252.646,315.645 251.5,315C 252.936,308.803 252.769,302.637 251,296.5C 250.667,296.833 250.333,297.167 250,297.5C 248.806,296.57 247.473,295.903 246,295.5C 242.563,296.487 239.063,297.154 235.5,297.5C 231.871,296.463 228.204,296.463 224.5,297.5C 213.869,295.947 203.203,294.614 192.5,293.5C 192.167,293.5 191.833,293.5 191.5,293.5C 188.666,291.733 185.666,289.899 182.5,288C 176.304,288.067 171.304,285.734 167.5,281C 165.19,280.503 162.857,280.337 160.5,280.5C 159.432,279.566 158.099,279.232 156.5,279.5C 154.566,278.89 152.899,277.89 151.5,276.5C 151.027,275.094 150.027,274.427 148.5,274.5C 147.738,272.738 146.404,271.738 144.5,271.5C 143.833,271.5 143.5,271.167 143.5,270.5C 143.67,269.178 143.337,268.011 142.5,267C 140.323,265.798 137.989,265.298 135.5,265.5C 134.209,264.527 134.209,263.527 135.5,262.5C 132.467,258.458 128.467,256.125 123.5,255.5C 122.833,255.5 122.167,255.5 121.5,255.5C 120.738,253.738 119.404,252.738 117.5,252.5C 117.241,248.932 115.241,247.599 111.5,248.5C 111.027,247.094 110.027,246.427 108.5,246.5C 107.508,246.672 106.842,246.338 106.5,245.5C 106.027,244.094 105.027,243.427 103.5,243.5C 102.508,243.672 101.842,243.338 101.5,242.5C 101.5,241.5 101.5,240.5 101.5,239.5C 100.127,239.657 98.7932,239.49 97.5,239C 96.1155,237.351 94.4488,236.184 92.5,235.5C 92.5,234.5 92.5,233.5 92.5,232.5C 86.4154,230.978 80.4154,229.145 74.5,227C 66.7384,226.145 59.0717,224.979 51.5,223.5C 50.8712,206.927 51.5379,190.594 53.5,174.5C 54.1667,174.5 54.5,174.167 54.5,173.5C 55.5676,172.566 56.901,172.232 58.5,172.5C 65.2273,172.045 71.8939,172.045 78.5,172.5C 79.2436,171.009 79.9103,169.509 80.5,168C 84.3119,167.909 87.3119,166.409 89.5,163.5C 92.491,163.834 94.8243,162.834 96.5,160.5C 98.7131,159.395 100.88,159.395 103,160.5C 105.333,159.5 107,157.833 108,155.5C 108.333,155.833 108.667,156.167 109,156.5C 110.438,155.1 111.271,153.433 111.5,151.5C 111.973,150.094 112.973,149.427 114.5,149.5C 116.027,149.573 117.027,148.906 117.5,147.5C 119.404,147.262 120.738,146.262 121.5,144.5C 122.29,143.599 123.29,142.932 124.5,142.5C 125.496,142.586 126.329,142.252 127,141.5C 127.333,142.167 127.667,142.833 128,143.5C 130.564,141.273 133.397,139.439 136.5,138C 138.654,136.68 140.154,134.847 141,132.5C 141.414,132.957 141.914,133.291 142.5,133.5C 143.527,131.447 144.527,129.447 145.5,127.5C 149.751,125.916 154.084,124.416 158.5,123C 159.141,120.87 160.474,119.37 162.5,118.5C 164.692,118.532 167.026,118.698 169.5,119C 169.167,118.667 168.833,118.333 168.5,118C 169.672,117.581 170.672,116.915 171.5,116C 169.874,116.195 168.207,116.195 166.5,116C 167.056,115.617 167.389,115.117 167.5,114.5C 169.027,114.573 170.027,113.906 170.5,112.5C 171.391,111.89 172.391,111.557 173.5,111.5C 175.857,111.663 178.19,111.497 180.5,111C 181.756,110.583 182.423,109.75 182.5,108.5C 186.123,107.344 189.789,106.344 193.5,105.5C 197.5,104.833 201.5,104.167 205.5,103.5C 207.144,103.286 208.644,103.62 210,104.5C 221.661,101.508 233.494,100.841 245.5,102.5C 248.126,102.378 250.126,101.378 251.5,99.5C 252.328,93.3466 252.828,87.0133 253,80.5C 253.671,79.7476 254.504,79.4142 255.5,79.5 Z"/></g>
<g><path style="opacity:1" fill="#aab5c2" d="M 265.5,84.5 C 271.87,87.679 277.87,91.3457 283.5,95.5C 280.487,95.6283 277.987,94.6283 276,92.5C 275.228,92.6448 274.561,92.9781 274,93.5C 271.31,90.2543 268.477,87.2543 265.5,84.5 Z"/></g>
<g><path style="opacity:1" fill="#c4cfda" d="M 286.5,96.5 C 287.71,96.9321 288.71,97.5987 289.5,98.5C 287.821,98.7148 286.821,98.0481 286.5,96.5 Z"/></g>
<g><path style="opacity:1" fill="#bdc6d1" d="M 289.5,98.5 C 292.032,99.5957 294.365,100.929 296.5,102.5C 293.318,102.416 290.985,101.083 289.5,98.5 Z"/></g>
<g><path style="opacity:1" fill="#9daab9" d="M 251.5,99.5 C 250.126,101.378 248.126,102.378 245.5,102.5C 233.494,100.841 221.661,101.508 210,104.5C 208.644,103.62 207.144,103.286 205.5,103.5C 208.931,102.865 212.264,101.865 215.5,100.5C 227.45,99.5407 239.45,99.2074 251.5,99.5 Z"/></g>
<g><path style="opacity:1" fill="#a9b2c0" d="M 215.5,100.5 C 212.264,101.865 208.931,102.865 205.5,103.5C 201.5,104.167 197.5,104.833 193.5,105.5C 193.5,105.167 193.5,104.833 193.5,104.5C 200.508,102.034 207.842,100.7 215.5,100.5 Z"/></g>
<g><path style="opacity:1" fill="#c1cad3" d="M 298.5,103.5 C 299.71,103.932 300.71,104.599 301.5,105.5C 299.821,105.715 298.821,105.048 298.5,103.5 Z"/></g>
<g><path style="opacity:1" fill="#b9c3cc" d="M 193.5,104.5 C 193.5,104.833 193.5,105.167 193.5,105.5C 189.789,106.344 186.123,107.344 182.5,108.5C 181.833,108.5 181.167,108.5 180.5,108.5C 184.502,106.39 188.835,105.057 193.5,104.5 Z"/></g>
<g><path style="opacity:1" fill="#a5afba" d="M 180.5,108.5 C 181.167,108.5 181.833,108.5 182.5,108.5C 182.423,109.75 181.756,110.583 180.5,111C 178.19,111.497 175.857,111.663 173.5,111.5C 175.509,109.935 177.843,108.935 180.5,108.5 Z"/></g>
<g><path style="opacity:1" fill="#a7b2c2" d="M 301.5,105.5 C 306.429,107.775 311.096,110.441 315.5,113.5C 314.833,113.5 314.167,113.5 313.5,113.5C 312.504,113.414 311.671,113.748 311,114.5C 309.084,112.791 306.918,111.457 304.5,110.5C 303.237,108.971 302.237,107.305 301.5,105.5 Z"/></g>
<g><path style="opacity:1" fill="#c3cdd8" d="M 170.5,112.5 C 170.027,113.906 169.027,114.573 167.5,114.5C 167.973,113.094 168.973,112.427 170.5,112.5 Z"/></g>
<g><path style="opacity:1" fill="#9eabb9" d="M 313.5,113.5 C 314.167,113.5 314.833,113.5 315.5,113.5C 319.535,115.848 323.535,118.182 327.5,120.5C 327.973,121.906 328.973,122.573 330.5,122.5C 332.674,122.75 334.341,123.75 335.5,125.5C 335.5,126.833 335.5,128.167 335.5,129.5C 334.167,130.167 332.833,130.833 331.5,131.5C 330.209,131.737 329.209,131.404 328.5,130.5C 329.287,128.896 330.62,128.229 332.5,128.5C 332.719,127.325 332.386,126.325 331.5,125.5C 324.712,122.606 318.045,119.44 311.5,116C 312.381,115.292 313.047,114.458 313.5,113.5 Z"/></g>
<g><path style="opacity:1" fill="#d0d6e0" d="M 327.5,120.5 C 329.027,120.427 330.027,121.094 330.5,122.5C 328.973,122.573 327.973,121.906 327.5,120.5 Z"/></g>
<g><path style="opacity:1" fill="#a2adbd" d="M 167.5,114.5 C 167.389,115.117 167.056,115.617 166.5,116C 168.207,116.195 169.874,116.195 171.5,116C 170.672,116.915 169.672,117.581 168.5,118C 168.833,118.333 169.167,118.667 169.5,119C 167.026,118.698 164.692,118.532 162.5,118.5C 160.474,119.37 159.141,120.87 158.5,123C 154.084,124.416 149.751,125.916 145.5,127.5C 152.166,122.162 159.499,117.829 167.5,114.5 Z"/></g>
<g><path style="opacity:1" fill="#bec0c2" d="M 335.5,125.5 C 339.265,126.475 339.265,127.808 335.5,129.5C 335.5,128.167 335.5,126.833 335.5,125.5 Z"/></g>
<g><path style="opacity:1" fill="#afbac6" d="M 328.5,130.5 C 329.209,131.404 330.209,131.737 331.5,131.5C 328.669,133.417 325.669,135.083 322.5,136.5C 322.5,135.5 322.5,134.5 322.5,133.5C 324.716,132.956 326.716,131.956 328.5,130.5 Z"/></g>
<g><path style="opacity:1" fill="#b6bfc9" d="M 138.5,132.5 C 137.415,134.587 135.749,135.92 133.5,136.5C 134.585,134.413 136.251,133.08 138.5,132.5 Z"/></g>
<g><path style="opacity:1" fill="#a0adbb" d="M 145.5,127.5 C 144.527,129.447 143.527,131.447 142.5,133.5C 141.914,133.291 141.414,132.957 141,132.5C 140.154,134.847 138.654,136.68 136.5,138C 133.397,139.439 130.564,141.273 128,143.5C 127.667,142.833 127.333,142.167 127,141.5C 126.329,142.252 125.496,142.586 124.5,142.5C 126.975,139.759 129.975,137.759 133.5,136.5C 135.749,135.92 137.415,134.587 138.5,132.5C 140.531,130.478 142.865,128.811 145.5,127.5 Z"/></g>
<g><path style="opacity:1" fill="#b0b9c4" d="M 322.5,136.5 C 320.206,138.653 317.54,140.32 314.5,141.5C 314.586,140.504 314.252,139.671 313.5,139C 316.312,137.451 319.312,136.618 322.5,136.5 Z"/></g>
<g><path style="opacity:1" fill="#bfc9d3" d="M 121.5,144.5 C 120.738,146.262 119.404,147.262 117.5,147.5C 118.262,145.738 119.596,144.738 121.5,144.5 Z"/></g>
<g><path style="opacity:1" fill="#a1adbb" d="M 313.5,141.5 C 305.804,146.682 297.804,151.348 289.5,155.5C 291.286,152.875 293.286,150.375 295.5,148C 298.938,147.08 301.938,145.413 304.5,143C 307.513,142.498 310.513,141.998 313.5,141.5 Z"/></g>
<g><path style="opacity:1" fill="#bac3ce" d="M 117.5,147.5 C 117.027,148.906 116.027,149.573 114.5,149.5C 114.973,148.094 115.973,147.427 117.5,147.5 Z"/></g>
<g><path style="opacity:1" fill="#a5b0bd" d="M 247.5,150.5 C 238.318,150.173 229.318,150.507 220.5,151.5C 209.498,152.28 199.164,155.28 189.5,160.5C 190.048,158.606 191.048,156.94 192.5,155.5C 197.54,153.998 202.54,152.498 207.5,151C 220.964,149.278 234.297,149.111 247.5,150.5 Z"/></g>
<g><path style="opacity:1" fill="#d2dce5" d="M 220.5,151.5 C 229.318,150.507 238.318,150.173 247.5,150.5C 249.483,150.157 250.817,150.824 251.5,152.5C 241.249,151.525 230.915,151.192 220.5,151.5 Z"/></g>
<g><path style="opacity:1" fill="#c2cad4" d="M 109.5,152.5 C 109.027,153.906 108.027,154.573 106.5,154.5C 106.973,153.094 107.973,152.427 109.5,152.5 Z"/></g>
<g><path style="opacity:1" fill="#b8c4ce" d="M 287.5,156.5 C 285.178,158.664 282.511,160.331 279.5,161.5C 280.234,160.292 280.567,158.959 280.5,157.5C 282.903,157.552 285.236,157.219 287.5,156.5 Z"/></g>
<g><path style="opacity:1" fill="#a0abb9" d="M 111.5,151.5 C 111.271,153.433 110.438,155.1 109,156.5C 108.667,156.167 108.333,155.833 108,155.5C 107,157.833 105.333,159.5 103,160.5C 100.88,159.395 98.7131,159.395 96.5,160.5C 99.4937,158 102.827,156 106.5,154.5C 108.027,154.573 109.027,153.906 109.5,152.5C 109.842,151.662 110.508,151.328 111.5,151.5 Z"/></g>
<g><path style="opacity:1" fill="#b1b8c3" d="M 251.5,152.5 C 252.329,159.989 252.829,167.656 253,175.5C 254.011,174.663 255.178,174.33 256.5,174.5C 255.235,175.479 253.901,176.479 252.5,177.5C 251.692,177.192 251.025,176.692 250.5,176C 251.363,168.083 251.696,160.25 251.5,152.5 Z"/></g>
<g><path style="opacity:1" fill="#aeb7c5" d="M 96.5,160.5 C 94.8243,162.834 92.491,163.834 89.5,163.5C 91.5093,161.935 93.8427,160.935 96.5,160.5 Z"/></g>
<g><path style="opacity:1" fill="#b0b9c6" d="M 185.5,162.5 C 182.709,164.735 179.709,166.735 176.5,168.5C 176.586,167.504 176.252,166.671 175.5,166C 177.663,165.755 179.33,164.755 180.5,163C 182.134,162.506 183.801,162.34 185.5,162.5 Z"/></g>
<g><path style="opacity:1" fill="#aab5c3" d="M 277.5,162.5 C 273.836,165.335 269.836,167.668 265.5,169.5C 265.433,166.234 267.099,164.734 270.5,165C 269.346,164.086 269.513,163.253 271,162.5C 272.011,163.337 273.178,163.67 274.5,163.5C 274.694,159.995 275.694,159.662 277.5,162.5 Z"/></g>
<g><path style="opacity:1" fill="#a9b5c1" d="M 176.5,168.5 C 174.795,170.192 172.795,171.525 170.5,172.5C 170.36,170.876 171.027,169.71 172.5,169C 172.167,168.667 171.833,168.333 171.5,168C 173.265,167.36 174.932,167.527 176.5,168.5 Z"/></g>
<g><path style="opacity:1" fill="#a1adba" d="M 89.5,163.5 C 87.3119,166.409 84.3119,167.909 80.5,168C 79.9103,169.509 79.2436,171.009 78.5,172.5C 71.8939,172.045 65.2273,172.045 58.5,172.5C 68.8685,169.987 79.2018,166.987 89.5,163.5 Z"/></g>
<g><path style="opacity:1" fill="#b2bdc7" d="M 261.5,171.5 C 260.341,173.25 258.674,174.25 256.5,174.5C 257.953,173.175 257.619,172.342 255.5,172C 257.473,171.505 259.473,171.338 261.5,171.5 Z"/></g>
<g><path style="opacity:1" fill="#acb5bb" d="M 54.5,173.5 C 54.5,174.167 54.1667,174.5 53.5,174.5C 52.1667,174.5 50.8333,174.5 49.5,174.5C 49.5,191.167 49.5,207.833 49.5,224.5C 52.4951,224.294 55.1617,224.96 57.5,226.5C 54.5176,226.037 51.5176,225.704 48.5,225.5C 48.5,208.167 48.5,190.833 48.5,173.5C 50.5,173.5 52.5,173.5 54.5,173.5 Z"/></g>
<g><path style="opacity:1" fill="#a8b2c1" d="M 170.5,172.5 C 165.397,177.225 159.731,181.225 153.5,184.5C 153.178,182.278 153.845,180.444 155.5,179C 157.895,178.319 160.228,177.485 162.5,176.5C 165.463,174.959 167.63,172.625 169,169.5C 169.232,170.737 169.732,171.737 170.5,172.5 Z"/></g>
<g><path style="opacity:1" fill="#b2bcc7" d="M 146.5,189.5 C 143.106,192.221 139.439,194.554 135.5,196.5C 138.14,192.523 141.806,190.189 146.5,189.5 Z"/></g>
<g><path style="opacity:1" fill="#aab5c2" d="M 130.5,199.5 C 135.445,202.445 140.112,205.779 144.5,209.5C 138.393,208.202 133.393,205.202 129.5,200.5C 129.624,199.893 129.957,199.56 130.5,199.5 Z"/></g>
<g><path style="opacity:1" fill="#a6b1be" d="M 145.5,209.5 C 153.137,214.478 160.47,219.812 167.5,225.5C 164.888,224.629 162.221,223.963 159.5,223.5C 159.881,221.058 159.214,220.391 157.5,221.5C 153.493,218.652 149.659,215.652 146,212.5C 145.517,211.552 145.351,210.552 145.5,209.5 Z"/></g>
<g><path style="opacity:1" fill="#99a7b4" d="M 53.5,174.5 C 51.5379,190.594 50.8712,206.927 51.5,223.5C 59.0717,224.979 66.7384,226.145 74.5,227C 80.4154,229.145 86.4154,230.978 92.5,232.5C 92.5,233.5 92.5,234.5 92.5,235.5C 90.1944,235.007 87.861,234.674 85.5,234.5C 81.6052,233.538 77.9385,232.204 74.5,230.5C 71.1456,228.742 67.479,227.742 63.5,227.5C 61.3792,227.675 59.3792,227.341 57.5,226.5C 55.1617,224.96 52.4951,224.294 49.5,224.5C 49.5,207.833 49.5,191.167 49.5,174.5C 50.8333,174.5 52.1667,174.5 53.5,174.5 Z"/></g>
<g><path style="opacity:1" fill="#a2acbb" d="M 255.5,225.5 C 256.391,226.11 257.391,226.443 258.5,226.5C 259.492,226.328 260.158,226.662 260.5,227.5C 260.973,228.906 261.973,229.573 263.5,229.5C 267.335,231.25 271.001,233.25 274.5,235.5C 270.574,235.768 266.907,234.935 263.5,233C 261.33,231.414 258.996,230.08 256.5,229C 255.663,227.989 255.33,226.822 255.5,225.5 Z"/></g>
<g><path style="opacity:1" fill="#b8c0ca" d="M 63.5,227.5 C 67.479,227.742 71.1456,228.742 74.5,230.5C 70.521,230.258 66.8544,229.258 63.5,227.5 Z"/></g>
<g><path style="opacity:1" fill="#c7cfd8" d="M 260.5,227.5 C 262.027,227.427 263.027,228.094 263.5,229.5C 261.973,229.573 260.973,228.906 260.5,227.5 Z"/></g>
<g><path style="opacity:1" fill="#b7bec7" d="M 258.5,226.5 C 257.391,226.443 256.391,226.11 255.5,225.5C 254.417,225.461 253.417,225.127 252.5,224.5C 251.808,225.025 251.308,225.692 251,226.5C 250.829,233.679 250.329,240.679 249.5,247.5C 249.169,238.808 249.502,230.141 250.5,221.5C 253.568,222.691 256.235,224.358 258.5,226.5 Z"/></g>
<g><path style="opacity:1" fill="#a4b0bd" d="M 168.5,225.5 C 171.167,227.5 173.833,229.5 176.5,231.5C 177.035,233.446 178.368,234.446 180.5,234.5C 185.667,236.916 190.667,239.582 195.5,242.5C 194.178,242.33 193.011,242.663 192,243.5C 191.626,242.584 191.126,241.75 190.5,241C 185.573,238.699 180.573,236.699 175.5,235C 173.945,233.417 172.778,231.584 172,229.5C 170.927,230.28 169.76,230.113 168.5,229C 169.171,228.014 169.171,226.847 168.5,225.5 Z"/></g>
<g><path style="opacity:1" fill="#bfc9d1" d="M 176.5,231.5 C 178.23,232.026 179.564,233.026 180.5,234.5C 178.368,234.446 177.035,233.446 176.5,231.5 Z"/></g>
<g><path style="opacity:1" fill="#acb6c2" d="M 85.5,234.5 C 87.861,234.674 90.1944,235.007 92.5,235.5C 94.4488,236.184 96.1155,237.351 97.5,239C 98.7932,239.49 100.127,239.657 101.5,239.5C 101.5,240.5 101.5,241.5 101.5,242.5C 96.1279,239.814 90.7946,237.147 85.5,234.5 Z"/></g>
<g><path style="opacity:1" fill="#c3ccd5" d="M 103.5,243.5 C 105.027,243.427 106.027,244.094 106.5,245.5C 104.973,245.573 103.973,244.906 103.5,243.5 Z"/></g>
<g><path style="opacity:1" fill="#aeb9c4" d="M 283.5,240.5 C 288.701,243.263 293.701,246.263 298.5,249.5C 295.67,249.306 293.004,248.639 290.5,247.5C 287.543,245.842 285.21,243.509 283.5,240.5 Z"/></g>
<g><path style="opacity:1" fill="#c1c7d4" d="M 108.5,246.5 C 110.027,246.427 111.027,247.094 111.5,248.5C 109.973,248.573 108.973,247.906 108.5,246.5 Z"/></g>
<g><path style="opacity:1" fill="#abb6c3" d="M 196.5,242.5 C 202.704,244.467 209.037,245.967 215.5,247C 226.828,247.5 238.162,247.667 249.5,247.5C 243.705,248.83 237.538,249.496 231,249.5C 223.224,249.08 215.557,249.08 208,249.5C 205.75,248.292 203.583,246.959 201.5,245.5C 198.085,246.65 196.418,245.65 196.5,242.5 Z"/></g>
<g><path style="opacity:1" fill="#a9b4bf" d="M 111.5,248.5 C 115.241,247.599 117.241,248.932 117.5,252.5C 115.147,251.66 113.147,250.326 111.5,248.5 Z"/></g>
<g><path style="opacity:1" fill="#cdd5e0" d="M 300.5,250.5 C 302.027,250.427 303.027,251.094 303.5,252.5C 301.973,252.573 300.973,251.906 300.5,250.5 Z"/></g>
<g><path style="opacity:1" fill="#9facba" d="M 290.5,247.5 C 293.004,248.639 295.67,249.306 298.5,249.5C 299.167,249.833 299.833,250.167 300.5,250.5C 300.973,251.906 301.973,252.573 303.5,252.5C 307.836,254.332 311.836,256.665 315.5,259.5C 312.261,261.056 309.928,260.056 308.5,256.5C 306.224,255.787 303.891,255.287 301.5,255C 297.572,252.765 293.905,250.265 290.5,247.5 Z"/></g>
<g><path style="opacity:1" fill="#bfc7d5" d="M 117.5,252.5 C 119.404,252.738 120.738,253.738 121.5,255.5C 119.596,255.262 118.262,254.262 117.5,252.5 Z"/></g>
<g><path style="opacity:1" fill="#c4cdd5" d="M 121.5,255.5 C 122.167,255.5 122.833,255.5 123.5,255.5C 123.833,256.167 124.167,256.833 124.5,257.5C 122.973,257.573 121.973,256.906 121.5,255.5 Z"/></g>
<g><path style="opacity:1" fill="#9daab8" d="M 123.5,255.5 C 128.467,256.125 132.467,258.458 135.5,262.5C 134.209,263.527 134.209,264.527 135.5,265.5C 133.539,264.54 131.873,263.207 130.5,261.5C 130.027,260.094 129.027,259.427 127.5,259.5C 127.027,258.094 126.027,257.427 124.5,257.5C 124.167,256.833 123.833,256.167 123.5,255.5 Z"/></g>
<g><path style="opacity:1" fill="#c1cbd5" d="M 124.5,257.5 C 126.027,257.427 127.027,258.094 127.5,259.5C 125.973,259.573 124.973,258.906 124.5,257.5 Z"/></g>
<g><path style="opacity:1" fill="#bac5cd" d="M 127.5,259.5 C 129.027,259.427 130.027,260.094 130.5,261.5C 128.973,261.573 127.973,260.906 127.5,259.5 Z"/></g>
<g><path style="opacity:1" fill="#b3bec8" d="M 315.5,259.5 C 318.331,260.079 320.664,261.412 322.5,263.5C 319.363,264.11 317.03,262.777 315.5,259.5 Z"/></g>
<g><path style="opacity:1" fill="#a9b3c2" d="M 322.5,263.5 C 325.76,264.774 328.76,266.44 331.5,268.5C 330.178,268.67 329.011,268.337 328,267.5C 327.581,268.672 326.915,269.672 326,270.5C 325.334,267.834 324.167,265.5 322.5,263.5 Z"/></g>
<g><path style="opacity:1" fill="#a3aebb" d="M 135.5,265.5 C 137.989,265.298 140.323,265.798 142.5,267C 143.337,268.011 143.67,269.178 143.5,270.5C 140.489,269.331 137.822,267.664 135.5,265.5 Z"/></g>
<g><path style="opacity:1" fill="#c1c8d0" d="M 144.5,271.5 C 146.404,271.738 147.738,272.738 148.5,274.5C 146.596,274.262 145.262,273.262 144.5,271.5 Z"/></g>
<g><path style="opacity:1" fill="#c1cbd3" d="M 333.5,269.5 C 334.973,270.072 336.307,270.905 337.5,272C 335.423,273.705 333.09,274.872 330.5,275.5C 331.574,274.115 332.907,272.949 334.5,272C 333.748,271.329 333.414,270.496 333.5,269.5 Z"/></g>
<g><path style="opacity:1" fill="#c7ceda" d="M 148.5,274.5 C 150.027,274.427 151.027,275.094 151.5,276.5C 149.973,276.573 148.973,275.906 148.5,274.5 Z"/></g>
<g><path style="opacity:1" fill="#cbd4dd" d="M 330.5,275.5 C 329.713,277.104 328.38,277.771 326.5,277.5C 327.514,276.326 328.847,275.66 330.5,275.5 Z"/></g>
<g><path style="opacity:1" fill="#9da9b8" d="M 160.5,280.5 C 162.857,280.337 165.19,280.503 167.5,281C 171.304,285.734 176.304,288.067 182.5,288C 185.666,289.899 188.666,291.733 191.5,293.5C 189.565,292.85 187.565,292.517 185.5,292.5C 179.109,290.93 173.109,288.596 167.5,285.5C 167.461,284.417 167.127,283.417 166.5,282.5C 164.369,281.831 162.369,281.165 160.5,280.5 Z"/></g>
<g><path style="opacity:1" fill="#adb7c3" d="M 156.5,279.5 C 158.099,279.232 159.432,279.566 160.5,280.5C 162.369,281.165 164.369,281.831 166.5,282.5C 167.127,283.417 167.461,284.417 167.5,285.5C 163.345,284.258 159.678,282.258 156.5,279.5 Z"/></g>
<g><path style="opacity:1" fill="#d0dadc" d="M 321.5,280.5 C 321.027,281.906 320.027,282.573 318.5,282.5C 318.973,281.094 319.973,280.427 321.5,280.5 Z"/></g>
<g><path style="opacity:1" fill="#c6d0df" d="M 313.5,285.5 C 312.486,286.674 311.153,287.34 309.5,287.5C 310.287,285.896 311.62,285.229 313.5,285.5 Z"/></g>
<g><path style="opacity:1" fill="#acb6c2" d="M 309.5,287.5 C 305.37,290.403 301.037,293.07 296.5,295.5C 296.577,294.25 297.244,293.417 298.5,293C 297.833,292.667 297.167,292.333 296.5,292C 298.594,290.648 300.927,290.148 303.5,290.5C 303.5,289.5 303.5,288.5 303.5,287.5C 305.5,287.5 307.5,287.5 309.5,287.5 Z"/></g>
<g><path style="opacity:1" fill="#bbc3cd" d="M 185.5,292.5 C 187.565,292.517 189.565,292.85 191.5,293.5C 191.833,293.5 192.167,293.5 192.5,293.5C 192.5,293.833 192.5,294.167 192.5,294.5C 189.848,294.59 187.515,293.924 185.5,292.5 Z"/></g>
<g><path style="opacity:1" fill="#a0acba" d="M 192.5,293.5 C 203.203,294.614 213.869,295.947 224.5,297.5C 228.204,296.463 231.871,296.463 235.5,297.5C 239.063,297.154 242.563,296.487 246,295.5C 247.473,295.903 248.806,296.57 250,297.5C 250.333,297.167 250.667,296.833 251,296.5C 252.769,302.637 252.936,308.803 251.5,315C 252.646,315.645 253.646,316.478 254.5,317.5C 256.071,316.691 257.738,316.357 259.5,316.5C 258.035,317.737 256.368,318.737 254.5,319.5C 253.5,319.5 252.5,319.5 251.5,319.5C 250.948,312.686 250.281,306.019 249.5,299.5C 235.139,299.741 220.806,299.241 206.5,298C 201.632,297.116 196.966,295.95 192.5,294.5C 192.5,294.167 192.5,293.833 192.5,293.5 Z"/></g>
<g><path style="opacity:1" fill="#b8bec6" d="M 249.5,299.5 C 250.281,306.019 250.948,312.686 251.5,319.5C 252.5,319.5 253.5,319.5 254.5,319.5C 253.152,320.601 251.652,321.601 250,322.5C 249.5,314.841 249.334,307.174 249.5,299.5 Z"/></g>
<g><path style="opacity:1" fill="#c6cdd6" d="M 280.5,304.5 C 279.71,305.401 278.71,306.068 277.5,306.5C 277.821,304.952 278.821,304.285 280.5,304.5 Z"/></g>
<g><path style="opacity:1" fill="#a8b2c0" d="M 294.5,296.5 C 290.113,299.531 285.446,302.197 280.5,304.5C 278.821,304.285 277.821,304.952 277.5,306.5C 275.117,308.358 272.45,309.692 269.5,310.5C 270.301,308.958 270.634,307.292 270.5,305.5C 273.932,305.243 277.266,304.576 280.5,303.5C 280.5,302.5 280.5,301.5 280.5,300.5C 282.806,300.007 285.139,299.674 287.5,299.5C 287.5,298.5 287.5,297.5 287.5,296.5C 289.833,296.5 292.167,296.5 294.5,296.5 Z"/></g>
</svg>
