<?xml version="1.0" encoding="UTF-8"?>
<!DOCTYPE svg PUBLIC "-//W3C//DTD SVG 1.1//EN" "http://www.w3.org/Graphics/SVG/1.1/DTD/svg11.dtd">
<svg xmlns="http://www.w3.org/2000/svg" version="1.1" width="500px" height="500px" style="shape-rendering:geometricPrecision; text-rendering:geometricPrecision; image-rendering:optimizeQuality; fill-rule:evenodd; clip-rule:evenodd" xmlns:xlink="http://www.w3.org/1999/xlink">
<g><path style="opacity:0.008" fill="#fefffe" d="M 261.5,228.5 C 262.659,239.326 262.826,250.326 262,261.5C 261.5,250.505 261.333,239.505 261.5,228.5 Z"/></g>
<g><path style="opacity:0.951" fill="#dfe0e3" d="M 290.5,260.5 C 289.596,261.209 289.263,262.209 289.5,263.5C 284.039,264.674 280.706,262.674 279.5,257.5C 277.95,255.572 276.283,253.739 274.5,252C 275.167,251.667 275.833,251.333 276.5,251C 275.207,250.51 273.873,250.343 272.5,250.5C 272.665,254.182 272.499,257.848 272,261.5C 269.519,263.314 266.685,263.98 263.5,263.5C 263.5,251.833 263.5,240.167 263.5,228.5C 270.755,228.187 277.921,228.52 285,229.5C 287.615,232.106 289.115,235.272 289.5,239C 288.921,242.667 287.587,246 285.5,249C 286.646,253.121 288.313,256.955 290.5,260.5 Z M 276.5,234.5 C 280.095,235.85 281.428,238.517 280.5,242.5C 277.873,243.092 275.206,243.425 272.5,243.5C 272.5,240.833 272.5,238.167 272.5,235.5C 274.099,235.768 275.432,235.434 276.5,234.5 Z"/></g>
<g><path style="opacity:0.92" fill="#ededef" d="M 110.5,242.5 C 110.167,241.167 109.833,241.167 109.5,242.5C 107.375,243.689 105.375,243.355 103.5,241.5C 94.9748,241.715 93.9748,244.548 100.5,250C 102.134,250.494 103.801,250.66 105.5,250.5C 105.222,248.654 105.889,247.32 107.5,246.5C 111.197,249.01 114.863,251.51 118.5,254C 116.284,256.599 113.617,258.432 110.5,259.5C 108.3,263.36 106.634,263.027 105.5,258.5C 97.7781,258.868 91.7781,256.368 87.5,251C 80.2043,249.764 78.8709,246.431 83.5,241C 82.8333,240.667 82.1667,240.333 81.5,240C 84.8807,238.953 88.0474,237.453 91,235.5C 91.3333,236.167 91.6667,236.833 92,237.5C 93.8063,235.694 95.6396,233.86 97.5,232C 101.04,231.266 104.373,230.099 107.5,228.5C 111.466,229.871 115.133,232.371 118.5,236C 116.785,239.355 114.119,241.522 110.5,242.5 Z"/></g>
<g><path style="opacity:0.004" fill="#fefffe" d="M 149.5,231.5 C 148.833,230.167 148.833,230.167 149.5,231.5 Z"/></g>
<g><path style="opacity:0.946" fill="#e0e2e4" d="M 149.5,231.5 C 150.267,230.828 150.934,229.995 151.5,229C 158.551,227.031 165.551,227.198 172.5,229.5C 174.853,233.036 176.853,236.869 178.5,241C 178.095,241.945 177.428,242.612 176.5,243C 177.833,244.333 177.833,245.667 176.5,247C 177.428,247.388 178.095,248.055 178.5,249C 177.47,251.56 176.303,254.06 175,256.5C 172.5,257.667 170.667,259.5 169.5,262C 166.724,263.037 163.89,263.87 161,264.5C 158.11,263.87 155.276,263.037 152.5,262C 150.12,258.742 147.62,255.576 145,252.5C 142.251,244.504 143.751,237.504 149.5,231.5 Z M 154.5,249.5 C 154.5,246.5 154.5,243.5 154.5,240.5C 155.736,238.389 157.236,236.389 159,234.5C 161.147,235.113 163.314,235.779 165.5,236.5C 167.111,239.387 168.444,242.387 169.5,245.5C 167.897,251.295 164.231,254.128 158.5,254C 156.93,252.603 155.596,251.103 154.5,249.5 Z"/></g>
<g><path style="opacity:0.926" fill="#dddee1" d="M 349.5,228.5 C 351.5,228.5 353.5,228.5 355.5,228.5C 357.104,229.809 357.77,232.143 357.5,235.5C 361.473,236.075 362.473,238.242 360.5,242C 359.552,242.483 358.552,242.649 357.5,242.5C 357.176,246.555 357.509,250.555 358.5,254.5C 360.829,256.655 361.662,259.322 361,262.5C 353.1,265.292 348.266,262.458 346.5,254C 347.091,249.902 347.424,246.235 347.5,243C 344.833,240.333 344.833,237.667 347.5,235C 346.483,233.951 346.316,232.784 347,231.5C 348.045,230.627 348.878,229.627 349.5,228.5 Z"/></g>
<g><path style="opacity:0.921" fill="#e1e3e5" d="M 371.5,235.5 C 375.215,235.196 378.715,235.863 382,237.5C 382.333,237.167 382.667,236.833 383,236.5C 390.189,242.488 391.023,248.321 385.5,254C 386.448,254.483 387.448,254.649 388.5,254.5C 385.874,261.987 380.541,265.154 372.5,264C 360.751,258.482 358.251,250.315 365,239.5C 366.866,237.191 369.033,235.858 371.5,235.5 Z M 375.5,241.5 C 376.478,241.811 377.145,242.478 377.5,243.5C 375.833,244.833 374.167,244.833 372.5,243.5C 373.602,242.824 374.602,242.158 375.5,241.5 Z M 371.5,252.5 C 374.355,251.197 377.355,251.197 380.5,252.5C 377.278,256.42 374.278,256.42 371.5,252.5 Z"/></g>
<g><path style="opacity:0.989" fill="#dfe1e3" d="M 391.5,235.5 C 394.365,235.055 396.865,235.722 399,237.5C 401.418,235.32 404.084,234.987 407,236.5C 407.667,238.167 407.667,239.833 407,241.5C 404.2,242.128 401.533,243.128 399,244.5C 398.5,250.825 398.334,257.158 398.5,263.5C 395.881,263.768 393.381,263.435 391,262.5C 390.196,253.422 390.363,244.422 391.5,235.5 Z"/></g>
<g><path style="opacity:0.004" fill="#fefffe" d="M 178.5,237.5 C 179.833,238.167 179.833,238.167 178.5,237.5 Z"/></g>
<g><path style="opacity:0.944" fill="#dedfe4" d="M 209.5,240.5 C 208.167,246.167 208.167,251.833 209.5,257.5C 209.5,257.833 209.5,258.167 209.5,258.5C 208.4,256.723 207.566,254.723 207,252.5C 206.529,254.246 205.862,255.913 205,257.5C 202.614,258.763 200.781,260.597 199.5,263C 196.173,265.133 193.006,264.966 190,262.5C 189.502,265.482 189.335,268.482 189.5,271.5C 186.5,271.5 183.5,271.5 180.5,271.5C 179.189,259.507 179.189,247.507 180.5,235.5C 185.489,236.487 190.156,236.487 194.5,235.5C 200.946,235.398 205.113,238.731 207,245.5C 208.113,244.24 208.28,243.073 207.5,242C 208.044,241.283 208.711,240.783 209.5,240.5 Z M 196.5,245.5 C 196.663,247.857 196.497,250.19 196,252.5C 194,256.5 192,256.5 190,252.5C 189.503,250.19 189.337,247.857 189.5,245.5C 190.923,243.455 192.923,242.455 195.5,242.5C 195.263,243.791 195.596,244.791 196.5,245.5 Z"/></g>
<g><path style="opacity:0.948" fill="#e0e2e4" d="M 236.5,235.5 C 239.144,235.16 241.477,235.827 243.5,237.5C 247.261,235.568 251.094,234.902 255,235.5C 256,236.5 257,237.5 258,238.5C 258.5,246.827 258.666,255.16 258.5,263.5C 256.076,263.808 253.743,263.474 251.5,262.5C 250.706,256.217 250.206,249.884 250,243.5C 247.427,242.017 245.26,242.517 243.5,245C 244.932,250.864 244.765,256.698 243,262.5C 240.619,263.435 238.119,263.768 235.5,263.5C 235.195,254.083 235.528,244.75 236.5,235.5 Z"/></g>
<g><path style="opacity:0.956" fill="#e3e4e6" d="M 316.5,253.5 C 317.833,250.833 317.833,248.167 316.5,245.5C 316.5,244.833 316.5,244.167 316.5,243.5C 317.314,241.369 317.814,239.036 318,236.5C 320.864,235.429 324.03,235.429 327.5,236.5C 328.33,242.138 328.83,247.804 329,253.5C 330.049,254.517 331.216,254.684 332.5,254C 333.309,248.583 333.809,243.083 334,237.5C 337.042,234.918 340.042,234.918 343,237.5C 343.333,237.167 343.667,236.833 344,236.5C 344.832,244.853 344.665,253.187 343.5,261.5C 340.589,263.831 337.422,264.165 334,262.5C 327.959,265.266 323.126,263.766 319.5,258C 320.535,256.493 320.368,254.993 319,253.5C 318.023,254.774 317.189,254.774 316.5,253.5 Z"/></g>
<g><path style="opacity:0.921" fill="#e0e1e3" d="M 210.5,258.5 C 210.5,257.833 210.167,257.5 209.5,257.5C 208.167,251.833 208.167,246.167 209.5,240.5C 211.134,239.028 212.634,237.362 214,235.5C 218,235.5 222,235.5 226,235.5C 227.6,238.15 229.933,240.816 233,243.5C 233.497,246.146 233.664,248.813 233.5,251.5C 232.448,251.351 231.448,251.517 230.5,252C 232.329,253.113 233.163,254.613 233,256.5C 227.799,264.456 220.965,266.29 212.5,262C 212.989,260.448 212.322,259.281 210.5,258.5 Z M 219.5,241.5 C 220.995,241.415 221.995,242.081 222.5,243.5C 220.833,244.833 219.167,244.833 217.5,243.5C 218.243,242.818 218.909,242.151 219.5,241.5 Z M 215.5,251.5 C 218.572,251.183 221.572,251.516 224.5,252.5C 221.029,257.744 218.029,257.41 215.5,251.5 Z"/></g>
<g><path style="opacity:0.973" fill="#e0e2e4" d="M 316.5,243.5 C 315.167,244.167 315.167,244.833 316.5,245.5C 316.5,248.167 316.5,250.833 316.5,253.5C 315.244,260.051 310.911,263.718 303.5,264.5C 300.972,264.237 298.639,263.404 296.5,262C 293.266,259.585 290.933,256.418 289.5,252.5C 289.621,249.998 289.788,247.332 290,244.5C 291.284,241.077 293.784,238.077 297.5,235.5C 300.727,235.655 304.06,235.822 307.5,236C 311.656,236.618 314.656,239.118 316.5,243.5 Z M 301.5,242.5 C 307.79,243.849 309.623,247.516 307,253.5C 304.478,256.326 302.478,255.993 301,252.5C 300.457,249.132 300.624,245.799 301.5,242.5 Z"/></g>
<g><path style="opacity:0.004" fill="#fefffe" d="M 109.5,242.5 C 109.833,242.5 110.167,242.5 110.5,242.5C 110.315,243.17 109.981,243.17 109.5,242.5 Z"/></g>
<g><path style="opacity:0.004" fill="#fefffe" d="M 209.5,258.5 C 209.833,258.5 210.167,258.5 210.5,258.5C 210.315,259.17 209.981,259.17 209.5,258.5 Z"/></g>
<g><path style="opacity:0.004" fill="#fefffe" d="M 110.5,259.5 C 111.833,260.167 111.833,260.167 110.5,259.5 Z"/></g>
<g><path style="opacity:0.004" fill="#fefffe" d="M 290.5,260.5 C 291.833,261.167 291.833,261.167 290.5,260.5 Z"/></g>
</svg>
